<?xml version="1.0" encoding="UTF-8"?>
<svg id="logosandtypes_com" data-name="logosandtypes com" xmlns="http://www.w3.org/2000/svg" viewBox="0 0 150 150">
  <g id="Layer_3" data-name="Layer 3">
    <g id="Layer_3-2" data-name="Layer 3">
      <g id="Layer_2" data-name="Layer 2">
        <path id="Layer_3-3" data-name="Layer 3" fill="none" d="M0,0H150V150H0V0Z"/>
      </g>
    </g>
  </g>
  <g>
    <path fill="currentColor" d="M28.6,39.68c1.88-2.58,3.95-5.01,6.21-7.28,2.27-2.28,4.73-4.37,7.34-6.24,.57-.34,.62-1.14,.17-1.65l-3.24-3.24c-3.17-3.17-8.32-3.18-11.49,0,0,0,0,0,0,0l-3.87,3.86c-3.17,3.15-3.19,8.28-.03,11.45,.01,.01,.02,.02,.03,.03l3.18,3.18c.52,.51,1.26,.39,1.71-.12Z"/>
    <path fill="currentColor" d="M78.06,43.82c-.57,0-1.14,.45-1.14,1.08v27.79c0,.8,.86,1.37,1.59,.97l24.71-12.79c.56-.28,.73-.97,.45-1.53-5.12-8.98-14.63-15.12-25.61-15.52Z"/>
    <path fill="currentColor" d="M76.92,21.61c-29.26,0-52.99,23.7-52.99,52.96s23.73,52.91,52.99,52.91,52.99-23.7,52.99-52.96-23.68-52.9-52.99-52.9Zm0,90.24h0c-20.6,0-37.34-16.71-37.34-37.28s16.74-37.27,37.34-37.27,37.34,16.7,37.34,37.27-16.67,37.28-37.34,37.28Z"/>
    <path fill="currentColor" d="M60.47,17.35c5.36-1.55,10.92-2.33,16.5-2.33,5.41,0,10.76,.73,15.94,2.15,.69,.17,1.37-.34,1.37-1.08v-6.42c0-4.49-3.64-8.13-8.13-8.13h-18.96c-4.49,0-8.13,3.64-8.13,8.13v6.6c0,.73,.68,1.25,1.42,1.08Z"/>
  </g>
</svg>