<svg width="160" height="160" xmlns="http://www.w3.org/2000/svg" version="1.1">
 <defs>
  <polygon points="0 59.6 139.6456 59.6 139.6456 0.2144 0 0.2144" id="path-1"/>
 </defs>
 <g>
  <rect id="svg_1" height="160" width="160" y="0" x="0" stroke-width="0" stroke="#000" fill="#004182"/>
  <g id="svg_2">
   <polygon points="57.80133056640625,99.72073364257812 55.215728759765625,107.21794128417969 52.60374450683594,99.70633697509766 50.31892395019531,99.70633697509766 53.994140625,109.47313690185547 56.10333251953125,109.47313690185547 59.91014099121094,99.70633697509766 " fill="#ffffff" id="Fill-1"/>
   <polygon points="43.548095703125,100.99514770507812 45.49568176269531,100.99514770507812 45.49568176269531,99.45753479003906 43.548095703125,99.45753479003906 " fill="#ffffff" id="Fill-2"/>
   <path fill="#ffffff" id="Fill-3" d="m74.50191,102.17371c-0.45401,-0.1804 -1.01762,-0.2712 -1.69121,-0.2712c-0.3028,0 -0.62482,0.02239 -0.9664,0.06599c-0.34201,0.0444 -0.6788,0.10241 -1.01042,0.176c-0.33199,0.0728 -0.63957,0.1584 -0.92238,0.256c-0.2832,0.09801 -0.52719,0.2 -0.73239,0.3076l0,6.7652l1.85999,0l0,-5.7404c0.18521,-0.07799 0.4024,-0.1412 0.65158,-0.18999c0.24883,-0.04881 0.49521,-0.0736 0.73923,-0.0736c0.32239,0 0.586,0.03641 0.7908,0.1104c0.20517,0.07281 0.366,0.1752 0.48318,0.30679c0.11719,0.132 0.20001,0.28321 0.24921,0.45441c0.0484,0.1708 0.07321,0.3492 0.07321,0.53441l0,4.59799l1.8596,0l0,-4.92039c0,-0.6244 -0.1172,-1.1324 -0.35161,-1.52241c-0.23441,-0.3904 -0.5784,-0.67639 -1.03239,-0.85679"/>
   <polygon points="26.06488800048828,100.99514770507812 28.012489318847656,100.99514770507812 28.012489318847656,99.45753479003906 26.06488800048828,99.45753479003906 " fill="#ffffff" id="Fill-5"/>
   <path fill="#ffffff" id="Fill-7" d="m23.03389,101.90262c-0.4688,0 -0.9324,0.05681 -1.3912,0.1684c-0.45879,0.1124 -0.8616,0.2396 -1.20799,0.3808c-0.3468,0.142 -0.5884,0.26119 -0.7248,0.3592l0,6.6624l1.8596,0l0,-5.87239c0.1852,-0.02881 0.39761,-0.05321 0.6368,-0.07321c0.2392,-0.01879 0.488,-0.03159 0.7468,-0.036c0.2588,-0.0052 0.5128,0.0024 0.7616,0.0216c0.2488,0.01961 0.4708,0.0444 0.6664,0.0732l0,-1.40601c-0.1272,-0.078 -0.2956,-0.1436 -0.5052,-0.19759c-0.21001,-0.0536 -0.4908,-0.08041 -0.842,-0.08041"/>
   <polygon points="11.275489807128906,109.47329711914062 13.26708984375,109.47329711914062 13.26708984375,105.53410339355469 17.147491455078125,105.53410339355469 17.147491455078125,103.92369079589844 13.26708984375,103.92369079589844 13.26708984375,101.302490234375 17.73308563232422,101.302490234375 17.73308563232422,99.70649719238281 11.275489807128906,99.70649719238281 " fill="#ffffff" id="Fill-8"/>
   <polygon points="26.108734130859375,102.166259765625 26.108734130859375,109.47345733642578 27.983131408691406,109.47345733642578 27.96833038330078,102.166259765625 " fill="#ffffff" id="Fill-9"/>
   <path fill="#ffffff" id="Fill-10" d="m80.45442,103.5647c0.24358,-0.1512 0.532,-0.2272 0.864,-0.2272c0.54601,0 0.9444,0.16841 1.19321,0.5052c0.18797,0.25441 0.31,0.63319 0.3676,1.13519l-3.1404,0c0.03317,-0.25479 0.08319,-0.47559 0.15198,-0.65919c0.13159,-0.35119 0.31961,-0.60239 0.56361,-0.754m3.9684,0.34401c-0.22522,-0.654 -0.586,-1.15681 -1.0836,-1.50801c-0.498,-0.35159 -1.1472,-0.52719 -1.9476,-0.52719c-1.13281,0 -2.00882,0.3416 -2.6284,1.0248c-0.62,0.68359 -0.92999,1.6696 -0.92999,2.95801c0,0.81039 0.1512,1.50079 0.45399,2.072c0.30241,0.57119 0.7296,1.00799 1.2812,1.31039c0.55161,0.30241 1.19357,0.45401 1.92558,0.45401c0.55643,0 1.04922,-0.0464 1.47881,-0.1392c0.4296,-0.09241 0.82001,-0.21201 1.17162,-0.3588l0,-1.6544c-0.17561,0.078 -0.38319,0.1636 -0.62242,0.256c-0.23959,0.09361 -0.49759,0.16841 -0.77599,0.2272c-0.2784,0.0584 -0.56879,0.08761 -0.8712,0.08761c-0.7424,0 -1.2916,-0.1996 -1.64719,-0.60001c-0.27921,-0.3132 -0.44524,-0.74 -0.50603,-1.27399l5.02322,0c0.0096,-0.89761 -0.09801,-1.67441 -0.32201,-2.3284"/>
   <polygon points="39.35968780517578,109.47313690185547 41.20488739013672,109.47313690185547 41.20488739013672,99.29634094238281 39.35968780517578,99.29634094238281 " fill="#ffffff" id="Fill-11"/>
   <polygon points="43.59193420410156,102.166259765625 43.59193420410156,109.47345733642578 45.466339111328125,109.47345733642578 45.4515380859375,102.166259765625 " fill="#ffffff" id="Fill-12"/>
   <path fill="#ffffff" id="Fill-13" d="m35.24581,106.48582c0,0.5468 -0.1196,0.952 -0.3584,1.21519c-0.24001,0.2636 -0.6228,0.3956 -1.15,0.3956c-0.5272,0 -0.9128,-0.132 -1.15681,-0.3956c-0.24399,-0.2632 -0.366,-0.6684 -0.366,-1.21519l0,-4.39241l-1.8596,0l0,4.59801c0,0.6832 0.1392,1.244 0.4172,1.68359c0.2784,0.43921 0.6712,0.7688 1.1788,0.98801c0.5076,0.22 1.0984,0.33 1.7716,0.33c1.0252,0 1.8304,-0.2468 2.4164,-0.74c0.58559,-0.4924 0.8784,-1.24641 0.8784,-2.2616l0,-4.59801l-1.7716,0l0,4.39241z"/>
   <path fill="#ffffff" id="Fill-14" d="m62.94154,103.5647c0.24397,-0.1512 0.532,-0.2272 0.864,-0.2272c0.54639,0 0.9444,0.16841 1.19321,0.5052c0.18799,0.25441 0.30997,0.63319 0.3676,1.13519l-3.14003,0c0.03281,-0.25479 0.0824,-0.47559 0.15121,-0.65919c0.132,-0.35119 0.31961,-0.60239 0.56401,-0.754m3.968,0.34401c-0.22443,-0.654 -0.58563,-1.15681 -1.0836,-1.50801c-0.4976,-0.35159 -1.1472,-0.52719 -1.9472,-0.52719c-1.1328,0 -2.0088,0.3416 -2.6284,1.0248c-0.62,0.68359 -0.93002,1.6696 -0.93002,2.95801c0,0.81039 0.15121,1.50079 0.45401,2.072c0.3024,0.57119 0.72961,1.00799 1.28122,1.31039c0.55159,0.30241 1.19357,0.45401 1.9256,0.45401c0.5564,0 1.04918,-0.0464 1.47879,-0.1392c0.42961,-0.09241 0.81999,-0.21201 1.1716,-0.3588l0,-1.6544c-0.1756,0.078 -0.38319,0.1636 -0.62241,0.256c-0.23918,0.09361 -0.49799,0.16841 -0.776,0.2272c-0.27838,0.0584 -0.56879,0.08761 -0.87119,0.08761c-0.742,0 -1.2912,-0.1996 -1.64761,-0.60001c-0.27881,-0.3132 -0.4444,-0.74 -0.50519,-1.27399l5.02281,0c0.00957,-0.89761 -0.09761,-1.67441 -0.3224,-2.3284"/>
   <polygon points="120.77207946777344,100.99514770507812 122.71969604492188,100.99514770507812 122.71969604492188,99.45753479003906 120.77207946777344,99.45753479003906 " fill="#ffffff" id="Fill-15"/>
   <path fill="#ffffff" id="Fill-16" d="m129.95326,106.48582c0,0.5468 -0.12001,0.952 -0.3588,1.21519c-0.23959,0.2636 -0.62242,0.3956 -1.14961,0.3956c-0.52719,0 -0.91321,-0.132 -1.15678,-0.3956c-0.24403,-0.2632 -0.36601,-0.6684 -0.36601,-1.21519l0,-4.39241l-1.86002,0l0,4.59801c0,0.6832 0.13922,1.244 0.41721,1.68359c0.27881,0.43921 0.67162,0.7688 1.1792,0.98801c0.5076,0.22 1.09802,0.33 1.77119,0.33c1.02562,0 1.83084,-0.2468 2.41643,-0.74c0.58557,-0.4924 0.8788,-1.24641 0.8788,-2.2616l0,-4.59801l-1.77161,0l0,4.39241z"/>
   <path fill="#ffffff" id="Fill-17" d="m114.53448,105.75378l1.82962,0l0,2.03559c-0.23401,0.08801 -0.4856,0.1536 -0.754,0.19721c-0.26801,0.044 -0.55363,0.06599 -0.85603,0.06599c-0.59557,0 -1.10597,-0.114 -1.5304,-0.34361c-0.42479,-0.22961 -0.74919,-0.598 -0.97398,-1.106c-0.22441,-0.50759 -0.33679,-1.18079 -0.33679,-2.0208c0,-0.84921 0.10999,-1.52759 0.32999,-2.0352c0.21921,-0.50719 0.54642,-0.87319 0.98079,-1.0984c0.4344,-0.2244 0.9688,-0.3364 1.60323,-0.3364c0.5368,0 1.054,0.08761 1.552,0.26321c0.498,0.1756 1.0256,0.4052 1.5816,0.6884l0,-1.86c-0.52724,-0.2244 -1.07361,-0.3952 -1.63962,-0.51241c-0.56639,-0.11719 -1.14719,-0.1756 -1.74319,-0.1756c-0.9664,0 -1.8008,0.17881 -2.50319,0.5344c-0.7032,0.35641 -1.24281,0.9108 -1.61842,1.66199c-0.37598,0.75201 -0.56358,1.7084 -0.56358,2.87c0,1.18121 0.18761,2.1456 0.56358,2.8924c0.37561,0.7464 0.91522,1.29559 1.61842,1.6468c0.70239,0.35199 1.54156,0.5272 2.51839,0.5272c0.65359,0 1.298,-0.0828 1.9328,-0.2488c0.634,-0.166 1.24481,-0.4044 1.83041,-0.71761l0,-4.5388l-3.82162,0l0,1.6104z"/>
   <polygon points="120.81614685058594,102.166259765625 120.81614685058594,109.47345733642578 122.69012451171875,109.47345733642578 122.67532348632812,102.166259765625 " fill="#ffffff" id="Fill-18"/>
   <polygon points="134.0673065185547,109.47313690185547 135.912109375,109.47313690185547 135.912109375,99.29634094238281 134.0673065185547,99.29634094238281 " fill="#ffffff" id="Fill-19"/>
   <polygon points="138.29891967773438,102.166259765625 138.29891967773438,109.47345733642578 140.17373657226562,109.47345733642578 140.15853881835938,102.166259765625 " fill="#ffffff" id="Fill-20"/>
   <polygon points="94.08683776855469,102.166259765625 94.08683776855469,109.47345733642578 95.96124267578125,109.47345733642578 95.946044921875,102.166259765625 " fill="#ffffff" id="Fill-21"/>
   <polygon points="94.04290771484375,100.99514770507812 95.99050903320312,100.99514770507812 95.99050903320312,99.45753479003906 94.04290771484375,99.45753479003906 " fill="#ffffff" id="Fill-22"/>
   <polygon points="86.41378784179688,103.51353454589844 90.06695556640625,103.51353454589844 86.32575988769531,107.9647445678711 86.32575988769531,109.47313690185547 92.066162109375,109.47313690185547 92.066162109375,107.9503402709961 88.57177734375,107.9503402709961 92.066162109375,103.57193756103516 92.066162109375,102.09314727783203 86.41378784179688,102.09314727783203 " fill="#ffffff" id="Fill-23"/>
   <polygon points="138.2552490234375,100.99514770507812 140.20291137695312,100.99514770507812 140.20291137695312,99.45753479003906 138.2552490234375,99.45753479003906 " fill="#ffffff" id="Fill-24"/>
   <path fill="#ffffff" id="Fill-25" d="m102.38177,108.2065c-0.2392,0.0732 -0.6268,0.1096 -1.16359,0.1096c-0.2348,0 -0.45959,-0.03841 -0.674,-0.1172c-0.21481,-0.078 -0.39041,-0.2 -0.52681,-0.366c-0.13719,-0.166 -0.2052,-0.366 -0.2052,-0.6004c0,-0.3512 0.12679,-0.6096 0.38039,-0.7756c0.254,-0.166 0.63922,-0.24879 1.1572,-0.24879c0.37082,0 0.71483,0.0412 1.03201,0.124c0.1312,0.03439 0.2468,0.07639 0.3588,0.11959l0,1.2792c0,0.244 -0.11922,0.40201 -0.3588,0.4756m1.50079,-5.55719c-0.2144,-0.19521 -0.45358,-0.34641 -0.71719,-0.45361c-0.2632,-0.10719 -0.53722,-0.1828 -0.82001,-0.2272c-0.28358,-0.0436 -0.55161,-0.06599 -0.80519,-0.06599c-0.60521,0 -1.17119,0.06159 -1.69882,0.1832c-0.52718,0.12241 -0.92238,0.2712 -1.18597,0.4464l0,1.68399c0.2728,-0.22399 0.62997,-0.40719 1.06879,-0.54919c0.43919,-0.1408 0.86882,-0.2124 1.28842,-0.2124c0.5468,0 0.97157,0.1104 1.2744,0.3296c0.30237,0.2196 0.45358,0.5688 0.45358,1.04721l0,0.59238c-0.09399,-0.05479 -0.19479,-0.1088 -0.30721,-0.16039c-0.244,-0.1124 -0.51799,-0.2 -0.82039,-0.264c-0.3028,-0.0632 -0.62959,-0.0952 -0.9808,-0.0952c-0.57599,0 -1.06158,0.0908 -1.45718,0.27158c-0.3952,0.18081 -0.69562,0.444 -0.90042,0.79041c-0.20479,0.3468 -0.30719,0.774 -0.30719,1.2816c0,0.468 0.08521,0.8616 0.25601,1.1788c0.17038,0.31721 0.40237,0.56881 0.69559,0.754c0.29279,0.1852 0.6244,0.3172 0.99561,0.3952c0.37119,0.07759 0.76599,0.1172 1.1864,0.1172c0.69278,0 1.30078,-0.0536 1.8228,-0.16119c0.52199,-0.1072 0.9276,-0.29001 1.21559,-0.54921c0.2876,-0.25841 0.43201,-0.6128 0.43201,-1.0616l0.0148,-3.49999c0,-0.40961 -0.0636,-0.75842 -0.1908,-1.04641c-0.1268,-0.2884 -0.298,-0.5296 -0.51282,-0.72519"/>
   <path fill="#ffffff" id="Fill-26" d="m146.59424,108.2065c-0.23923,0.0732 -0.62675,0.1096 -1.164,0.1096c-0.23441,0 -0.45917,-0.03841 -0.6736,-0.1172c-0.2148,-0.078 -0.39035,-0.2 -0.52721,-0.366c-0.13676,-0.166 -0.2052,-0.366 -0.2052,-0.6004c0,-0.3512 0.12724,-0.6096 0.3808,-0.7756c0.25404,-0.166 0.63924,-0.24879 1.15685,-0.24879c0.37079,0 0.71516,0.0412 1.03236,0.124c0.1312,0.03439 0.2468,0.07639 0.35881,0.11959l0,1.2792c0,0.244 -0.11958,0.40201 -0.35881,0.4756m1.50084,-5.55719c-0.21483,-0.19521 -0.45404,-0.34641 -0.71764,-0.45361c-0.26318,-0.10719 -0.5368,-0.1828 -0.81998,-0.2272c-0.2832,-0.0436 -0.55159,-0.06599 -0.80484,-0.06599c-0.60559,0 -1.172,0.06159 -1.69879,0.1832c-0.52719,0.12241 -0.92276,0.2712 -1.18596,0.4464l0,1.68399c0.27278,-0.22399 0.62917,-0.40719 1.06876,-0.54919c0.43922,-0.1408 0.86882,-0.2124 1.28841,-0.2124c0.54681,0 0.97124,0.1104 1.27403,0.3296c0.30278,0.2196 0.45398,0.5688 0.45398,1.04721l0,0.59238c-0.09398,-0.05479 -0.19481,-0.1088 -0.30757,-0.16039c-0.24362,-0.1124 -0.51764,-0.2 -0.82004,-0.264c-0.3028,-0.0632 -0.62961,-0.0952 -0.9812,-0.0952c-0.57558,0 -1.06161,0.0908 -1.45676,0.27158c-0.3952,0.18081 -0.69563,0.444 -0.90042,0.79041c-0.20523,0.3468 -0.30762,0.774 -0.30762,1.2816c0,0.468 0.08522,0.8616 0.25641,1.1788c0.17038,0.31721 0.40242,0.56881 0.69522,0.754c0.29277,0.1852 0.62479,0.3172 0.99597,0.3952c0.3708,0.07759 0.76599,0.1172 1.186,0.1172c0.69283,0 1.30081,-0.0536 1.82278,-0.16119c0.5224,-0.1072 0.92763,-0.29001 1.216,-0.54921c0.28722,-0.25841 0.43161,-0.6128 0.43161,-1.0616l0.01442,-3.49999c0,-0.40961 -0.06323,-0.75842 -0.1904,-1.04641c-0.1268,-0.2884 -0.29761,-0.5296 -0.51239,-0.72519"/>
   <path fill="#ffffff" id="Fill-27" d="m139.72003,67.5743l-0.00479,0c-0.00281,0.0972 -0.00598,0.1948 -0.01561,0.288c-0.00757,0.064 -0.01637,0.1296 -0.0284,0.1988c-0.00237,0.0172 -0.00479,0.0344 -0.0076,0.0516c-0.01476,0.1132 -0.0428,0.222 -0.06598,0.3324c-0.05603,0.24641 -0.12482,0.4836 -0.21802,0.7028c-0.0072,0.0168 -0.01477,0.0332 -0.02196,0.05c-0.10126,0.23 -0.21684,0.448 -0.35164,0.6476c-0.06039,0.0936 -0.12961,0.1788 -0.1972,0.2676c-0.03482,0.0432 -0.06996,0.086 -0.10599,0.128c-0.6636,0.8116 -1.59641,1.3872 -2.67398,1.5732c-0.24442,0.05 -0.47881,0.0768 -0.692,0.0768l-3.61122,0l0,-3.4352l0,-5.3744l0,-3.4352l3.61122,0c0.2132,0 0.44759,0.02639 0.692,0.0768c1.07758,0.18599 2.01038,0.7612 2.67398,1.5732c0.03603,0.042 0.07117,0.0848 0.10599,0.12801c0.0676,0.08879 0.13681,0.1736 0.1972,0.2676c0.1348,0.1996 0.25038,0.4176 0.35164,0.64759c0.00719,0.0168 0.01476,0.03281 0.02196,0.05c0.0932,0.2192 0.16199,0.45641 0.21802,0.7028c0.02318,0.1104 0.05122,0.2188 0.06598,0.332c0.00281,0.0172 0.00523,0.0348 0.0076,0.05199c0.01202,0.06921 0.02083,0.1348 0.0284,0.1984c0.0088,0.0844 0.01118,0.1728 0.01404,0.2608l0.00636,0l0,3.6388zm10.10278,-5.386c0,-2.1448 -0.46715,-4.054 -1.40077,-5.7284c-0.93477,-1.674 -2.31677,-2.9912 -4.14882,-3.9508c-1.83159,-0.9592 -4.04037,-1.43919 -6.62593,-1.43919l-0.00122,0l-5.92043,0l-2.01198,0c-0.00279,0 -0.00603,-0.0008 -0.0092,-0.0008l-6.918,0c-0.76401,0 -1.38362,0.6192 -1.38362,1.38359l0,6.6756c0,0.0344 0.00801,0.0668 0.01042,0.1008l0,1.958l0,3.068l0,8.0672l0,1.6348l0,10.68761l0,5.36679l0,2.238l7.93558,0l2.3768,0l0,-11.7268l5.92043,0l0.00122,0c2.58556,0 4.79434,-0.48 6.62593,-1.43919c1.83205,-0.9596 3.21405,-2.2772 4.14882,-3.9508c0.93362,-1.67481 1.40077,-3.58401 1.40077,-5.72881l0,-7.1448l-0.00317,0c0,-0.0244 0.00317,-0.0464 0.00317,-0.0708l0,0z"/>
   <path fill="#ffffff" id="Fill-28" d="m15.20557,92.2483l16.93359,0l0,-8.27801l-12.31039,0l0,-8.15479l12.31039,0l0,-7.84641l-12.31039,0.0004l0,-8.1552l12.31039,0l0,-8.7452l-13.6512,0c-0.0032,0 -0.006,-0.00121 -0.0092,-0.00121l-6.91759,0c-0.764,0 -1.384,0.61961 -1.384,1.38361l0,3.646l0,3.03l0,28.092c0,2.77761 2.2516,5.0288 5.0284,5.0288"/>
   <path fill="#ffffff" id="Fill-29" d="m81.90637,62.99538c0.00362,0 0.00681,-0.0012 0.01001,-0.0016l0,-3.2648c0,-0.76399 0.6196,-1.3836 1.38361,-1.3836c0,0 2.1908,-0.0092 2.31958,-0.0108c0.12842,0.0016 0.25401,0.0076 0.3764,0.02c0.06401,0.0076 0.12921,0.0168 0.19879,0.0284c0.01723,0.0024 0.03442,0.0052 0.05161,0.0076c0.11279,0.01479 0.22162,0.04279 0.33241,0.066c0.24559,0.0564 0.4836,0.12519 0.7028,0.218c0.0164,0.0072 0.03317,0.01479 0.04999,0.022c0.23001,0.1012 0.44801,0.2172 0.64758,0.3516c0.09323,0.06039 0.17842,0.1304 0.26721,0.19759c0.0432,0.0344 0.0856,0.06961 0.12759,0.10561c0.81201,0.66401 1.38762,1.5964 1.57401,2.674c0.05002,0.2448 0.07642,0.4788 0.07642,0.6924l0,13.06601l-8.11801,0l0,-12.78841zm0,20.7064l8.11801,0l0,8.54641l10.32199,0l0,-14.73241l0,-15.03201l0,-0.0012l-0.0004,0c0,-2.5856 -0.48,-4.7944 -1.43961,-6.62599c-0.9588,-1.83201 -2.2764,-3.21441 -3.95039,-4.14881c-1.67479,-0.93359 -3.584,-1.40079 -5.72842,-1.40079l-16.25917,0c-0.76401,0 -1.38321,0.6196 -1.38321,1.3836l0,9.9272c0,0.0956 0.00961,0.1888 0.02798,0.2792c-0.00598,0.198 -0.02798,0.3828 -0.02798,0.5856l-0.0004,0l0,0.0012l0,15.03201l0,14.73241l10.32159,0l0,-8.54641z"/>
   <path fill="#ffffff" id="Fill-30" d="m116.03488,87.71434l0,-5.4092l0,-9.8084l0,-1.3764l0,-11.7064l0,-2.94521l0,-5.4004l-6.08481,0l-0.00076,0.0008l-2.85162,0c-0.76398,0 -1.38361,0.61919 -1.38361,1.3836l0,0.7336l0,4.7748l0,1.1672l0,14.7208l0,5.76l0,12.63881l10.3208,0l0,-4.53361z"/>
   <path fill="#ffffff" id="Fill-31" d="m51.6425,58.38914c0.21519,-0.03881 0.40959,-0.0572 0.5692,-0.0572c0.30518,0 0.58917,0.0348 0.862,0.0868c0.0188,0.0036 0.0376,0.006 0.0564,0.00999c0.28159,0.05761 0.54558,0.14121 0.7928,0.24601c0.0168,0.0072 0.0332,0.0148 0.05,0.022c0.22998,0.1012 0.448,0.2168 0.64758,0.3516c0.0936,0.06039 0.17882,0.13039 0.26761,0.19759c0.04321,0.0344 0.086,0.0696 0.12799,0.10561c0.812,0.664 1.38721,1.59639 1.57321,2.67399c0.04999,0.2448 0.07678,0.4788 0.07678,0.6924l0,29.5304l10.32162,0l0,-14.7324l0,-15.032l0,-0.0012c-0.0004,-2.586 -0.48003,-4.7944 -1.43919,-6.626c-0.95961,-1.832 -2.27681,-3.2144 -3.95084,-4.1488c-1.67477,-0.9336 -3.58397,-1.4008 -5.72838,-1.4008c-2.06999,0 -3.90399,0.3592 -5.50281,1.0776c-1.2012,0.5396 -1.73721,0.8868 -2.60919,1.68961l-0.01559,-0.01l0,-0.6128c0,-0.764 -0.6192,-1.38359 -1.38361,-1.38359l-7.5384,0c-0.7644,0 -1.38361,0.6196 -1.38361,1.38359l0,1.952l0,11.1228l0,26.722l10.32121,0l0,-28.714c0,-0.17641 0.01361,-0.33881 0.02481,-0.50401c-0.00443,-0.0824 -0.02481,-0.1604 -0.02481,-0.244c0,-2.2652 1.69681,-4.11479 3.88521,-4.39719"/>
  </g>
 </g>
</svg>