<svg xmlns="http://www.w3.org/2000/svg" xmlns:xlink="http://www.w3.org/1999/xlink" xmlns:serif="http://www.serif.com/" width="100%" height="100%" viewBox="-24 -31.5 305 305" version="1.1" xml:space="preserve" style="fill-rule:evenodd;clip-rule:evenodd;stroke-linejoin:round;stroke-miterlimit:2;"><rect x="-24" y="-31.5" width="305" height="305" rx="24" fill="#369a76"/><g><g><g><path d="M83.384,49.073c-3.437,2.812 -6.562,5.937 -9.375,9.375c2.5,-3.125 5.625,-6.25 9.375,-9.375Z" style="fill:#ffffff;fill-rule:nonzero;"/><path d="M90.884,163.448c5,3.125 10.313,5.312 15.938,6.875c-1.563,-0.938 -3.125,-1.875 -4.375,-3.125c-4.063,-0.938 -7.813,-2.188 -11.563,-3.75Z" style="fill:#ffffff;fill-rule:nonzero;"/><path d="M195.259,80.01c-5.312,-15.312 -15,-27.5 -27.5,-35.937c-0.312,-0 -0.312,-0.313 -0.625,-0.313c-18.437,-12.5 -41.875,-16.562 -64.062,-8.75c-33.125,11.25 -52.813,44.063 -48.438,77.5c0.625,5 1.875,9.688 3.438,14.375c3.437,10 8.75,18.75 15.625,25.938c0.937,0.937 1.562,1.875 2.812,2.812c11.563,10.938 26.25,17.813 42.188,19.688l0.937,-0c10,0.937 20.625,-0 30.938,-3.438c24.062,-8.125 40.937,-27.812 46.562,-50.625l0,-0.312c0.625,-2.5 1.25,-5 1.563,-7.5l-0,-0.625c1.25,-10.313 0.312,-21.875 -3.438,-32.813Zm-5,-4.062c2.813,4.687 2.5,13.437 -1.875,22.812c-7.812,-5 -20,-6.875 -35.937,-2.5c10.937,-8.125 18.437,-19.062 20.937,-28.75c8.125,1.25 14.063,4.375 16.875,8.438Zm-77.5,-5.938c-14.687,3.125 -23.75,-0.312 -25.312,-7.187c4.062,-3.125 8.75,-6.25 13.75,-8.75c8.437,-4.375 22.187,-10.313 36.25,-11.875c7.812,8.437 -2.188,23.125 -24.688,27.812Zm2.5,10.313c21.875,-11.25 41.563,-14.688 55.625,-13.125c-3.437,11.562 -15,24.062 -31.875,30.937c-20,8.438 -39.687,10 -53.437,6.25c6.875,-9.062 16.875,-17.5 29.687,-24.062Zm-5,-4.375c-12.812,7.187 -22.812,16.562 -29.687,26.875c-7.813,-3.125 -13.438,-8.438 -15,-15.313c4.375,-7.5 10.312,-14.687 18.125,-21.25c1.875,7.5 11.875,12.188 26.562,9.688Zm-27.812,32.812c11.562,3.438 26.562,3.75 42.187,-0.312c-14.062,8.75 -23.75,20.312 -27.812,31.25c-9.688,-0.938 -17.813,-3.75 -24.063,-7.5c0.938,-7.5 4.375,-15.625 9.688,-23.438Zm18.125,36.563c10.937,0.937 23.125,-0.313 36.562,-4.375c-8.437,8.125 -10,17.5 -2.5,22.812c-11.25,2.5 -20.625,2.813 -28.75,1.563c-6.25,-5 -7.812,-12.188 -5.312,-20Zm40,16.875c-9.375,-5.625 -7.188,-15.313 9.375,-23.75c13.125,-6.563 26.562,-4.688 29.375,3.75c-5.313,4.687 -11.875,9.062 -19.688,12.5c-6.875,3.437 -13.125,5.625 -19.062,7.5Zm-38.125,-22.188c5.312,-10.937 16.875,-22.5 31.875,-30.312c22.5,-11.875 41.25,-11.875 51.562,-6.563c-6.25,10.313 -17.812,20.938 -36.875,28.438c-17.187,6.562 -33.125,9.062 -46.562,8.437Zm85.312,-70c-2.5,-3.437 -7.187,-5.937 -13.125,-7.187c0.625,-5.625 -0.937,-10.313 -4.375,-13.75c6.563,5.625 12.813,12.812 17.5,20.937Zm-15.937,-7.812c-10.938,-1.875 -25.938,-0.625 -42.5,5.312c9.687,-7.5 15.937,-18.437 12.5,-25.625c8.437,-0.312 17.187,0.938 24.687,5.625c4.063,3.75 5.938,9.063 5.313,14.688Zm-18.75,-23.125c-4.688,-0.938 -9.375,-0.938 -14.375,-0.625c-3.438,-2.813 -9.063,-4.375 -17.813,-4.375c11.25,-0.938 22.188,0.937 32.188,5Zm-64.688,6.25c4.688,-3.125 10,-5.625 15.625,-7.5c0.313,-0 0.625,-0.313 1.25,-0.313c13.438,-1.875 22.5,-0.937 28.125,1.875c-13.437,1.875 -25.937,7.188 -33.437,10.938c-16.25,8.125 -27.813,20 -35.313,31.875c0.313,-9.688 7.188,-22.5 23.75,-36.875Zm-25.937,30.937c-1.563,4.375 -1.875,8.75 -1.25,12.5c-1.875,3.75 -3.125,7.188 -4.063,10.625c0.625,-8.125 2.5,-15.937 5.313,-23.125Zm-4.063,27.5c0.938,-3.437 2.188,-7.187 4.063,-10.625c2.5,6.25 7.812,10.938 15.312,14.063c-4.687,7.812 -7.5,15.625 -8.437,22.812c-9.375,-7.187 -13.438,-16.562 -10.938,-26.25Zm2.188,22.5c-0.313,-0.625 -0.313,-1.25 -0.625,-1.562c2.187,3.437 5,6.562 8.75,9.375c-0,3.437 0.312,6.875 0.937,10c-3.437,-5.313 -6.562,-11.25 -9.062,-17.813Zm11.875,10.313c6.25,3.75 14.062,6.875 22.812,8.125c-1.562,7.187 -0.312,14.062 4.063,19.375c-8.438,-2.188 -15.313,-5.938 -20.938,-10.313c-4.062,-4.375 -5.937,-10.312 -5.937,-17.187Zm18.437,26.875c3.438,1.562 7.5,2.812 11.563,4.062c1.25,1.25 2.812,2.188 4.375,3.125c-5.625,-1.875 -10.938,-4.375 -15.938,-7.187Zm58.438,5.937c-2.813,0.938 -5.313,1.563 -8.125,2.188c-13.438,1.25 -23.125,-0 -29.688,-2.813c13.75,1.25 30,-1.25 49.063,-10.625c6.875,-3.437 13.437,-8.125 19.062,-13.437c-3.437,7.812 -4.687,9.687 -10.312,14.062c-5.938,4.375 -12.5,8.125 -20,10.625Zm30.312,-20.937c1.25,-2.188 1.25,-3.438 1.563,-5.313c3.75,-3.437 5.312,-5.937 8.125,-9.687c-2.5,5.625 -5.625,10.312 -9.688,15Zm11.875,-19.375c-2.812,4.062 -5.937,7.812 -10.312,11.562c0.625,-7.5 -7.188,-12.5 -17.813,-11.562c11.563,-7.188 20,-15.938 25,-24.688c4.375,3.125 6.875,7.188 6.563,11.875c-0.625,4.375 -1.875,8.75 -3.438,12.813Zm4.688,-21.25c-1.25,-2.813 -3.125,-5.313 -5.625,-7.5c2.5,-5.625 3.437,-10.938 2.812,-15.938c2.188,7.813 3.125,15.625 2.813,23.438Z" style="fill:#ffffff;fill-rule:nonzero;"/></g><path d="M249.322,91.26c1.562,-2.5 -1.875,-9.062 -2.5,-10.937c-0.313,-1.875 0.312,-11.563 -0.938,-13.75c-1.25,-2.5 -3.75,-6.875 -4.062,-9.375c-0.313,-2.5 -0,-3.438 -2.5,-4.063c-2.188,-0.312 -6.875,-6.25 -8.75,-8.125c-1.875,-1.875 -2.813,-10.625 -4.063,-12.812c-1.25,-2.188 -1.562,2.5 -2.812,1.875c-1.25,-0.625 -3.125,-7.188 -5,-9.688c-1.875,-2.5 -2.5,-0.312 -4.375,0c-1.563,0.313 -6.563,-3.437 -8.75,-5.312c-2.5,-1.875 -3.438,-3.438 -5.938,-3.75c-2.5,-0.313 -2.812,-6.25 -8.437,-9.375c-4.063,-2.188 -8.438,-3.125 -10.625,-5.313c-1.563,-1.875 -4.063,0.938 -5,1.563c-2.188,1.562 -5.313,-0.938 -7.5,2.187c-1.25,1.875 -0,4.063 0.937,5.625c1.25,1.563 0,2.5 1.25,5.313c0.938,2.812 3.75,3.75 5.313,4.687c1.562,0.938 2.5,3.438 5,5.938c2.5,2.5 5.312,1.25 8.75,3.75c3.437,2.5 1.875,3.75 4.375,6.25c2.5,2.5 -0.625,4.375 2.812,7.812c3.75,3.438 2.188,4.688 -0.312,7.813c-2.5,3.437 7.812,6.25 10.625,7.812c2.812,1.875 0.625,5 -0.938,6.25c-1.562,1.25 -4.062,-1.25 -2.5,1.875c1.563,2.813 -0.937,8.75 -0.312,12.188c0.312,3.125 12.5,15.312 14.687,18.125c2.188,2.812 0,8.437 5.938,16.875c5.937,8.437 3.437,10.312 1.875,12.812c-1.563,2.5 -5.313,2.5 -6.875,4.688c-1.563,2.187 -1.563,5.937 -2.813,5.312c-1.25,-0.625 -5,4.688 -3.437,2.813c1.25,-1.875 4.062,-5 3.437,-7.5c-0.937,-2.5 -0.937,-5.625 -0.937,-9.375c-0,-3.75 -3.438,-3.438 -6.875,-2.5c-3.438,1.25 -2.5,4.062 -6.563,5c-4.062,0.937 -3.75,5.312 -5,8.75c-1.25,3.437 -3.75,3.437 -4.375,5.312c-0.625,1.875 5,12.813 7.188,15.625c2.5,2.813 0.937,3.438 -2.188,8.438c-2.812,5 -5.625,1.875 -8.437,5c-2.813,2.812 -10.313,17.5 -13.75,18.75c-3.438,1.25 -4.063,-2.5 -7.188,-4.375c-2.812,-1.875 -20.937,8.75 -24.687,11.562c-4.063,2.813 -6.563,0.625 -9.375,-1.875c-2.813,-2.5 -5.625,0 -11.563,2.5c-6.25,2.5 -8.437,-1.25 -10.937,-4.687c-2.5,-3.438 -19.688,-10.313 -21.563,-9.375c-0.625,0.312 -5,1.875 -4.375,4.687c0.938,2.813 -8.75,-3.125 -8.75,-3.125c-2.187,-1.25 -8.75,-13.125 -14.687,-17.812c-5.938,-4.688 -9.688,-6.25 -9.688,-6.25c0,-0 5.313,-11.25 4.063,-21.875c-1.563,-10.625 -2.813,-15.938 -4.063,-15.938c-1.25,0 -2.187,2.188 -2.187,1.563c-0,-2.188 -4.688,-12.813 -6.563,-12.813c-1.875,0 -5.625,10.938 -6.25,15.625c-0.625,4.688 -1.562,10.313 1.25,16.25c2.813,5.938 3.75,12.5 3.75,12.5c0,0 -8.125,-14.062 -11.25,-26.875c-1.562,-6.25 -2.812,-10 -1.875,-11.25c3.125,-3.437 1.875,-4.375 1.875,-4.375c0,0 1.563,-3.437 3.75,-9.375c2.5,-5.937 8.75,-20.625 11.25,-26.25c3.125,-7.187 1.25,-15.625 1.25,-15.625c0,0 1.875,-3.437 3.438,-9.062c1.562,-5.313 1.562,-10 1.562,-10c0,-0 11.875,-5.625 21.875,-17.188c9.688,-10.937 7.188,-12.5 5.625,-14.375c-1.562,-1.562 -3.125,-1.562 -3.125,-1.562c1.25,-3.438 0.938,-6.25 0.938,-6.25c-0,-0 -8.75,-2.813 -24.375,12.5c-5.938,5.937 -10.313,14.687 -10.313,14.687c0,0 -0.937,-0.937 -1.25,-3.125c-0.312,-2.187 1.563,-10.312 -2.5,-7.5c-12.5,8.438 -15.625,36.25 -15.625,36.25c0,0 -3.125,-7.812 -4.687,-7.812c-3.438,-0 -13.75,17.187 -12.188,40.937c1.875,25.938 9.688,29.063 14.688,35.313c5.312,6.25 4.062,10 4.062,11.562c0,0 -11.25,-13.75 -15.312,-12.812c-3.438,1.25 -0.625,16.25 5.312,26.875c5,8.437 19.063,22.5 32.5,31.25c3.125,2.187 6.25,3.75 9.375,5c4.688,1.875 5.313,3.437 9.688,5.937c1.875,0.938 18.125,2.813 16.562,7.188c-0.625,1.875 -19.687,0.625 -24.687,0.625c-5,-0 -8.125,-2.5 -11.25,-5.313c-1.563,-1.562 -13.125,-14.375 -13.75,-16.562c-4.375,-13.125 -12.188,-16.25 -23.125,-16.25c-5.938,-0 -1.563,9.375 -9.688,16.875c-4.062,3.75 6.875,10.937 12.5,15.625c7.5,6.25 31.875,27.187 37.188,28.125c5.937,1.25 26.562,1.875 31.875,0.937c5.312,-0.625 9.375,-0.937 12.187,-0.937c2.813,-0 -8.437,6.875 -11.875,8.75c-3.437,1.875 4.688,7.812 7.813,10.312c3.125,2.813 7.5,0.313 11.875,-4.687c4.375,-5.313 13.437,-14.063 17.5,-15.938c4.062,-1.875 3.437,2.5 9.375,1.563c5.937,-0.625 1.25,-1.25 6.875,-0.625c5.625,0.625 11.25,8.75 16.875,15.312c5.625,6.25 10.625,5 15,2.813c4.687,-2.188 2.5,-4.375 -0.938,-8.75c-3.75,-4.375 -8.437,-5 -5.625,-5.625c2.813,-0.625 41.25,0.312 45,-0.625c8.438,-2.188 31.875,-26.563 36.875,-30.938c5,-4.687 11.25,-8.125 13.125,-12.812c1.563,-4.688 -1.562,-4.375 -2.812,-11.563c-0,-2.5 -0.313,-10.312 -5.313,-10.312c-1.875,-0 -6.562,0.312 -9.375,3.75c-2.187,2.812 -3.125,6.25 -6.25,9.375c-11.875,12.187 -25,25.312 -28.125,26.562c-5,1.875 -42.187,5.313 -12.812,0.313c1.875,-0.313 21.25,-10.625 22.187,-10.938c3.125,-1.875 1.875,-2.812 2.813,-5.312c1.25,-3.75 5.625,-6.25 5.625,-7.188c-0,-1.875 -0,-2.812 4.687,-4.687c4.375,-1.875 5.313,-4.063 5.625,-6.875c0.313,-2.813 1.875,-3.125 3.438,-6.25c1.875,-3.125 5,-7.5 5.312,-9.688c0.313,-2.5 4.688,-5.312 5,-9.375c0.313,-3.75 2.813,-3.437 2.188,-6.875c-0.625,-3.437 0.312,-5.312 0.625,-9.687c0.312,-4.063 -1.875,-6.25 -5.625,-5c-3.75,1.25 -1.875,-0.313 -3.438,-2.188c-1.562,-1.875 4.688,-11.25 7.188,-14.687c2.5,-3.125 -0,-4.688 -0.625,-5.313c-0.938,-0.312 0.937,-0.625 2.5,-3.125Zm-229.375,-19.062c-0.625,3.75 -0.625,12.187 -0.938,19.687c-0.312,7.188 -1.25,13.75 -0.937,15.313c0.625,3.437 1.875,7.187 1.875,7.187c-0,0 -4.063,-3.75 -5.625,-20.625c-0.625,-9.062 1.875,-29.062 1.875,-29.062c-0,-0 -3.125,2.187 -3.438,20.625c-0.312,18.437 4.375,28.75 4.375,28.75c0,-0 -3.125,-4.375 -5.312,-11.25c-2.5,-6.875 -3.75,-16.875 -2.188,-30c1.563,-13.125 8.75,-21.875 8.75,-21.875c0,-0 4.063,8.75 1.563,21.25Zm68.125,114.375c1.875,-1.563 5,-3.125 6.875,-1.563c1.875,1.25 6.875,3.125 9.687,4.063c2.813,0.937 6.25,4.687 5.938,6.25c-0.313,1.875 -11.875,-4.063 -14.063,-6.563c-1.875,-2.5 -3.437,5.313 -6.25,3.125c-0.625,-0.625 -4.062,-3.75 -2.187,-5.312Zm-17.5,-5.625c-0.625,1.25 -2.813,1.875 -3.75,0.937c-0.938,-0.937 -0.938,-2.187 -0.313,-2.5c0.938,-0.625 4.688,0.313 4.063,1.563Zm-18.75,-57.188c0.625,0 1.875,4.063 1.875,8.125l-0,6.563c-0,-0 -0.625,-8.75 -2.188,-10.313c-1.562,-1.875 0.313,-4.375 0.313,-4.375Zm-10.625,17.813c-0.625,-2.188 -2.188,-4.688 -2.188,-10.313c0,-5.625 4.375,-18.75 4.375,-18.75c0,0 2.5,2.188 5.313,14.063c2.812,11.875 4.062,16.875 2.812,22.5c-1.25,5.625 -1.875,7.812 -1.875,7.812c0,0 -2.5,-13.125 -3.125,-18.125c-0.625,-5 -1.562,-9.062 -1.562,-12.187c-0,-3.125 -1.875,-6.563 -1.875,-6.563c-0,0 -0.625,2.188 -0.625,5c-0,2.5 1.562,7.813 2.187,14.375c0.938,6.563 1.25,8.75 1.875,11.25c0.625,2.5 0.313,7.5 0.313,7.5c-0,0 -5,-14.687 -5.625,-16.562Zm4.062,-69.375c-2.5,9.687 -2.5,6.875 -8.125,21.562c0,0 5.938,-22.187 5.313,-24.375c-0.625,-2.187 -3.125,9.375 -7.188,21.25c-5.312,16.563 -7.5,20.938 -7.5,20.938l-0.312,-0.625c-0,-0 0.312,-2.813 -0.313,-4.375c-0.312,-1.875 0,-2.188 0,-2.188c0,0 0.625,-0.937 1.563,-5.937c0.937,-4.688 1.25,-10.625 4.687,-20.625c4.375,-13.125 11.563,-18.125 11.563,-18.125c-0,-0 1.562,7.5 0.312,12.5Zm33.125,-61.875c2.813,2.5 2.188,4.062 -7.812,12.812c-9.688,9.063 -15.313,9.375 -15.313,9.375c0,0 5.313,-5 9.375,-9.375c4.375,-4.062 10,-9.687 10,-9.687c0,-0 -4.062,0.312 -8.437,5.312c-4.375,5 -9.688,9.375 -9.688,9.375c0,0 0,-0.312 0.313,-0.937c0.625,-1.563 2.812,-5.625 7.812,-10c6.563,-5 10.938,-9.375 13.75,-6.875Zm-29.375,17.187c3.125,-4.062 7.188,-7.5 12.5,-13.125c5.625,-5.625 7.5,-6.875 7.5,-6.875c0,0 -6.875,4.063 -9.687,6.563c-2.813,2.5 -6.563,6.562 -5.313,2.812c1.25,-3.75 7.5,-6.875 11.563,-10c4.062,-3.125 9.687,-3.437 9.687,-3.437c0,-0 -0.625,4.062 -1.875,5.312c-1.25,1.25 -5.625,3.125 -10.625,7.5c-5,4.688 -12.5,13.438 -12.5,13.438c0,-0 -4.375,1.875 -1.25,-2.188Zm-8.125,17.813c1.563,-2.5 5.938,-10.313 5.938,-10.313c-0,0 2.5,-1.875 3.75,-1.875c1.25,0 0.625,4.063 0.312,10.938c-0.625,6.875 -5,12.5 -7.5,11.875l-2.5,-0.313c0,0 1.563,-6.562 4.375,-10.625c2.5,-4.062 3.75,-9.062 3.75,-9.062c0,-0 -1.875,0.625 -4.375,5.937c-2.5,5.313 -7.812,17.813 -7.812,17.813l-0.313,-4.063c0.313,0 2.813,-7.812 4.375,-10.312Zm-17.5,23.75c0,-0 1.875,-4.375 4.063,-12.188c2.187,-8.125 3.437,-13.437 5.625,-17.5c2.187,-4.062 1.25,-8.437 1.25,-8.437c-0,-0 -1.25,3.75 -3.438,7.812c-1.875,4.063 -3.75,6.875 -4.687,10c-0.938,3.125 -0,-1.875 -0,-1.875c-0,0 1.562,-6.25 5.312,-14.062c3.75,-7.813 6.875,-10.938 7.813,-11.563c0.625,-0.625 0.937,5.625 -1.875,17.5c-3.125,11.875 -6.25,17.188 -8.438,22.5c-2.187,5.313 -6.25,12.188 -6.25,12.188l0.625,-4.375Zm-0.625,45c-2.187,-7.813 -1.25,-19.375 0,-25c1.25,-5.313 1.25,-9.375 3.75,-14.688c3.125,-6.562 5.938,-16.25 5.938,-16.25c1.562,4.063 -1.563,12.813 -4.063,17.5c-2.5,5 -4.687,19.063 -4.687,29.375c-0,10.313 9.687,35.625 9.687,35.625c0,0 -2.5,-0.937 -3.437,-1.875c-0.938,-0.937 -0.938,-3.437 -1.563,-7.5c-0.312,-4.062 -3.125,-9.375 -5.625,-17.187Zm-2.187,34.062c3.437,5 12.187,16.875 12.187,16.875c0,0 -8.125,-3.437 -15.625,-15.937c-7.5,-12.5 -5,-22.5 -5,-22.5c0,-0 6.875,5.625 16.25,19.062c9.375,13.438 16.875,29.063 16.875,29.063c0,-0 -7.812,-8.125 -17.187,-19.375c-3.125,-3.75 -10,-14.688 -12.188,-18.438c0.625,2.188 1.875,7.188 4.688,11.25Zm29.375,19.375c-1.25,0.938 -4.375,0.313 -5,-0.625c-0.938,-0.937 1.875,-2.187 2.187,-2.187c0.313,-0.313 4.063,1.875 2.813,2.812Zm6.875,11.25c-0.625,-0.312 -1.875,-1.562 -1.875,-2.812c-0,-0.938 2.187,-1.563 3.125,-0.625c0.937,1.25 0.312,4.062 -1.25,3.437Zm-8.75,-19.687c-0,-0 7.812,4.062 12.812,8.75c4.688,4.687 6.25,10.312 6.25,10.312c0,0 -3.437,-3.125 -8.437,-8.125c-5,-5 -10.625,-10.937 -10.625,-10.937Zm16.25,26.562c-1.25,-1.25 0.937,-0.625 2.812,-0.625c2.188,0 6.25,0 7.5,-0.625c1.25,-0.937 1.875,1.875 5.313,3.75c3.125,1.875 12.187,7.813 14.062,6.563c1.875,-1.25 4.375,-1.25 6.563,0.625c2.187,1.562 3.125,4.062 -2.5,2.5c-5.625,-1.25 -13.125,-4.063 -15.625,-6.25c-2.813,-2.188 -16.875,-4.688 -18.125,-5.938Zm-41.875,-20.625c1.562,1.25 6.562,4.688 7.5,8.125c0.312,1.563 -6.563,-3.125 -9.063,-5.312c-2.187,-1.875 -5.312,-3.438 -5.625,-4.063c-0.625,-1.875 5.625,0 7.188,1.25Zm70.937,74.375c-1.875,0 -8.75,-3.437 -7.5,-5c1.563,-1.562 8.438,-1.25 9.688,0.313c1.562,1.562 -0.313,4.687 -2.188,4.687Zm8.125,-8.125c-1.875,2.5 -4.687,0 -6.25,-0.312c-1.875,-0.313 -6.25,0.312 -5.625,-0.625c0.625,-1.25 16.25,-10 18.125,-10c1.875,-0 5.625,-0.938 5.938,-0.313c0.312,0.938 -10.625,8.438 -12.188,11.25Zm22.188,-17.5c-3.125,2.188 -45,7.188 -47.813,7.188c-2.812,-0 -22.5,-1.25 -25.625,-2.188c-2.812,-0.937 -43.75,-35.625 -45.312,-37.187c-3.438,-3.438 0.625,-4.063 3.437,-9.063c1.563,-3.125 1.563,-9.375 4.688,-6.875c1.875,1.563 10.312,5.313 16.562,10.938c5.938,5.312 18.438,21.875 25.625,23.437c15.938,3.438 62.5,-3.437 65.625,-0.312c1.563,1.562 6.25,12.187 2.813,14.062Zm103.437,-166.875c0,1.25 -1.562,4.688 -2.812,4.063c-1.25,-0.625 0.937,-2.813 0.937,-4.375c0,-1.563 -0.312,-5 0.313,-5c0.937,-0 1.562,4.062 1.562,5.312Zm-20.625,-13.125c0.625,-1.562 0.938,-5.625 1.563,-6.25c0.625,-0.937 2.5,-2.5 3.437,-1.875c0.938,0.625 3.438,1.875 5,1.875c1.563,0 3.75,2.5 4.375,4.063c0.625,1.562 0.313,5 0.625,5.625c0.313,0.625 3.75,-0 4.375,1.25c0.938,0.937 -1.25,2.5 -2.187,3.437c-0.625,0.625 -0.313,5 -0.938,5.313c-0.625,0.312 -4.375,-6.563 -5,-7.813c-0.625,-0.937 1.875,-8.75 0,-7.5c-1.875,1.25 -2.187,8.125 -1.875,9.375c0.313,1.25 -5.937,-0.625 -6.25,0c-0.312,0.625 7.813,4.688 9.375,5.313c1.563,0.625 3.125,6.562 2.813,7.187c-0.313,0.625 -3.438,-1.562 -5.313,-2.812c-1.875,-1.25 -6.562,-1.875 -7.187,-2.813c-0.938,-0.937 -0.625,-4.375 -1.25,-6.25c-0.938,-2.187 -4.688,-3.75 -4.688,-5c0,-1.25 2.813,-2.5 3.125,-3.125Zm-13.75,-22.5c0.313,-0.312 2.813,1.875 3.438,3.75c0.937,2.5 1.25,5.313 0.625,5.625c-0.625,0 -4.688,-9.062 -4.063,-9.375Zm-19.062,3.125c-1.563,-0.937 0.625,-3.125 -0.625,-4.375c-1.25,-1.25 -2.813,-2.812 -1.563,-4.062c1.25,-0.938 4.063,-0.625 5.313,-0c1.25,0.312 1.562,-1.875 2.812,-1.875c1.25,-0 5.938,2.812 8.438,3.437c2.5,0.625 3.437,2.188 3.125,2.5c-0.313,0.313 -2.813,0.625 -0.625,2.5c2.187,1.563 2.812,5.313 2.187,5.313c-0.625,-0 -0.937,-0.938 -1.562,-1.25c-0.625,-0.313 -1.25,0.312 -2.188,-0c-0.937,-0.313 -3.437,-5.625 -4.375,-6.875c-0.937,-1.25 -1.562,0.312 -2.187,0.625c-0.625,0.312 -2.188,-1.25 -3.125,-1.25c-0.938,-0.313 -1.563,-0.313 -1.875,0.625c-0.625,0.937 4.062,2.812 4.062,3.75c0,0.937 -6.25,1.875 -7.812,0.937Zm5.625,2.5c-0,-0.937 4.062,-1.875 6.562,-0.937c2.5,1.25 4.063,4.375 3.438,4.687c-0.625,0.313 -6.563,0.625 -7.813,-0.312c-0.937,-0.313 -2.187,-1.875 -2.187,-3.438Zm15.625,10.313c-0.938,1.25 -1.875,0.312 -2.5,-0.313c-0.625,-0.937 0.312,-2.5 -0.938,-2.5c-1.25,0 -5.937,0.938 -6.562,0.313c-0.938,-0.625 -0.938,-0.938 -0.313,-1.875c0.313,-0.938 7.813,-1.25 9.375,-0.938c0.938,0.313 1.875,4.375 0.938,5.313Zm1.25,4.375c0.937,-1.563 2.812,-2.5 2.812,-3.75c0,-1.25 -1.562,-4.063 0,-4.688c1.25,-0.625 2.5,2.188 3.438,2.813c0.937,0.625 2.812,0.312 2.5,1.25c-0.313,0.937 -3.125,0.312 -3.75,0.312c-0.625,0 2.187,4.063 1.562,4.375c-0.625,0.625 -2.5,-0.312 -2.812,0.313c-0,0.625 1.25,4.687 0.312,5c-0.937,0.625 -5.625,-2.813 -4.062,-5.625Zm3.75,9.375c0.937,-0.313 3.75,1.25 3.75,2.187c-0,1.25 -2.813,2.5 -3.438,1.563c-0.937,-0.625 -1.25,-3.438 -0.312,-3.75Zm3.125,14.062c-1.563,-0.937 -3.438,-4.062 -3.125,-4.375c0.312,-0.312 8.75,4.063 8.437,5.313c0,1.25 -3.75,-0 -5.312,-0.938Zm4.375,-3.125c-1.25,-1.25 -2.813,-5 -1.875,-5.312c0.312,-0 3.75,3.437 5.937,4.375c1.875,0.937 9.375,3.125 10.625,4.375c1.25,1.25 0,2.812 -1.25,3.437c-1.25,0.625 -4.375,-2.5 -5.312,-3.437c-1.25,-1.25 -6.875,-2.5 -8.125,-3.438Zm7.187,35c-0.312,0.313 -2.5,-2.5 -4.687,-3.437c-2.188,-0.938 -4.375,-5 -3.438,-6.25c0.938,-1.25 1.875,-4.688 1.563,-5.625c-0.313,-0.938 3.75,3.125 4.375,4.062c1.25,1.563 2.187,5.313 1.562,5.625c-0.625,0 -5.312,-2.187 -5.312,-1.875c-0,0.313 2.812,1.563 4.062,3.125c1.25,1.875 2.188,4.063 1.875,4.375Zm0,-16.25c0.313,-2.5 -0.625,-7.187 -1.562,-7.187c-0.938,-0 0.312,9.375 -0.938,9.375c-0.625,-0 -4.062,-3.438 -3.437,-5.313c0.625,-1.875 1.562,-5 1.25,-5.937c-0.313,-1.25 0.937,-3.125 2.812,-3.125c1.875,-0 5.313,3.75 5.625,7.187c0.313,3.75 -1.875,6.25 -2.5,6.875c-0.312,0.313 -1.562,0.625 -1.25,-1.875Zm2.813,13.75c-0.625,-0.625 -1.563,-5 -1.875,-6.562c-0,-1.875 4.375,-8.125 4.062,-9.375c0,-1.25 1.25,-4.375 2.813,-3.125c0.937,0.937 -0.313,8.75 -2.188,10c-1.875,1.25 -1.25,1.875 -0.625,2.5c0.625,0.312 4.063,0.625 3.438,1.562c-0.938,0.313 -5,5.625 -5.625,5Zm1.875,6.875c-1.25,-2.812 5.625,-12.187 5.312,-13.125c-0.312,-1.25 -1.25,-1.875 -0.937,-2.812c0.312,-0.938 3.125,-1.563 4.375,-1.25c1.25,0.312 -0.313,2.187 -0.938,2.812c-0.625,0.938 0,4.063 -0.312,5.313c-0.313,1.25 -4.063,5 -4.375,5.625c-0.313,0.625 1.875,1.875 2.812,1.875c0.938,-0 -0.625,1.25 -1.562,2.187c-0.938,1.25 -3.125,2.188 -4.375,-0.625Zm14.062,9.063c-0.312,-1.25 2.188,-4.688 2.813,-4.375c2.5,1.25 2.5,8.75 0.625,8.437c-0.625,0 -0.938,-1.25 -1.25,-1.875c-0.313,-0.312 -1.875,-0.625 -2.188,-2.187Zm0.938,18.75c-0,0.312 -1.563,0.937 -2.188,0.937c-0.625,0 -0.937,-2.187 0,-2.187c0.938,-0 2.188,0.937 2.188,1.25Zm-3.75,-25.625c-1.25,-1.563 -1.875,-6.875 -1.563,-6.563c2.5,0 2.5,3.438 3.438,4.063c0.625,0.625 2.5,1.562 2.5,2.812c0.312,0.938 -3.125,1.25 -4.375,-0.312Zm0.625,6.875c0.937,2.187 0.312,5.937 -0.938,5.937c-0.937,0 -4.375,-9.062 -3.437,-10c1.25,-1.25 3.75,1.875 4.375,4.063Zm-9.375,2.5c-0.625,-0.938 -0.938,-7.813 -0,-8.125c1.562,-0.313 1.25,4.375 1.562,5.312c0.313,0.625 1.25,0.625 1.563,0.625c0.312,0 0.937,1.25 0.312,2.5c-0.312,1.25 -2.5,0.625 -3.437,-0.312Zm4.375,10.937c-0.938,0 -1.875,-2.5 -1.563,-3.437c0.313,-0.938 2.188,-1.563 3.438,-0.313c0.937,0.938 -0.938,3.75 -1.875,3.75Zm0.625,18.438c1.25,-2.5 0.937,-5.625 1.562,-6.25c0.625,-0.313 2.813,-0.313 2.813,0.312c-0,0.938 -1.563,1.875 -1.875,3.125c-0,0.938 0.625,2.813 -0,3.75c-0.313,0.625 -3.75,1.25 -2.5,-0.937Zm-3.75,-0.938c1.25,0.938 0.312,5 -0.625,4.375c-0.938,-0.312 -0,-5 0.625,-4.375Zm-10,12.188c0.625,-0.625 2.187,4.062 0.312,5.937c-1.875,1.875 -4.687,3.125 -5,2.813c-0.312,-0.313 0.625,-3.438 1.875,-4.688c1.563,-1.562 2.188,-3.437 2.813,-4.062Zm-7.188,-11.875c1.25,-0.625 -0.312,-4.063 0,-5.625c0.313,-1.563 3.125,-4.375 5,-4.063c1.875,0.313 1.25,4.063 2.188,8.75c0.937,5 -2.188,7.813 -3.438,6.563c-0.625,-0.625 0.625,-7.5 0,-8.125c-0.312,-0.313 -1.25,10.312 -3.437,7.187c-2.188,-2.5 -1.563,-3.75 -0.313,-4.687Zm-6.25,10.312c0.625,-0.625 1.563,-5 0.625,-6.562c-0.937,-1.25 -0.312,-5.313 1.25,-5.938c0.938,-0.625 0.938,3.75 1.875,5.625c0.938,1.563 4.375,11.563 2.188,14.688c-2.188,3.125 -2.5,-1.563 -3.75,-2.5c-0.938,-1.25 -2.813,-5 -2.188,-5.313Zm-2.812,5.313c-0,-1.25 -1.875,-7.188 -1.875,-7.813c-0,-0.937 3.125,-0.625 3.437,0.313c0.313,1.25 -0.625,4.062 0.938,6.562c1.562,2.188 5.625,5.625 5.625,6.875c-0,1.25 -1.25,4.063 -2.5,2.5c-1.563,-1.562 -5.625,-7.187 -5.625,-8.437Zm-12.188,36.562c4.063,-5 5.313,-11.562 6.563,-12.812c1.25,-1.25 3.75,-0.625 5,-2.188c6.25,-7.812 15.312,-15 16.25,-15.312c1.25,-0 -10.938,11.875 -14.688,17.812c-3.75,5.625 -7.812,7.5 -9.687,10.625c-2.188,3.438 -2.188,6.563 -1.875,7.813c0.312,1.25 -4.375,-0.313 -6.25,0.937c-1.563,1.25 -9.375,5.625 -9.375,3.125c-0,-0.937 12.5,-7.812 14.062,-10Zm24.375,-14.375c-0.625,1.25 -1.875,2.188 -2.812,0.938c-0.938,-0.938 0.312,-2.188 1.25,-3.125c0.625,-0.938 2.5,0.937 1.562,2.187Zm4.688,13.75c-0,0.938 -8.438,6.875 -9.688,6.25c-1.25,-0.625 0,-6.562 1.25,-7.812c1.875,-1.875 8.438,0.625 8.438,1.562Zm-25,7.188c2.812,-2.813 7.812,-13.125 10.625,-11.875c2.812,1.25 2.812,8.437 0.937,11.562c-2.187,3.125 -5,2.188 -6.562,4.063c-1.875,1.875 -2.5,2.5 -4.063,3.125c-1.562,0.312 -16.25,1.875 -15.937,-0.938c-0,-2.187 12.187,-3.125 15,-5.937Zm-0,-5.938c-0.313,-1.25 0.625,-2.812 2.5,-3.125c1.562,0 0.937,3.438 -0,4.063c-1.25,0.625 -2.5,0.312 -2.5,-0.938Zm12.812,-5.937c-1.562,-0.313 -3.437,-2.813 -1.562,-4.063c1.25,-0.937 4.375,-0.312 4.375,0.625c-0.313,1.25 -1.563,3.75 -2.813,3.438Zm-34.687,15.625c-0,1.562 -1.875,4.062 -3.125,4.062c-1.563,0 -2.813,-4.687 -0.938,-5.625c1.875,-1.25 4.063,-0.312 4.063,1.563Zm-2.188,-8.438c2.188,-0.312 -0.937,1.563 -5.625,4.375c-5,2.813 -13.437,7.5 -13.125,5.625c0.313,-2.5 16.563,-9.687 18.75,-10Zm-6.562,10.625c-0,0.938 -2.188,1.25 -3.438,0c-1.25,-1.25 2.5,-2.187 3.75,-2.187c1.25,0.625 -0.312,1.25 -0.312,2.187Zm-16.875,15.938c-3.75,3.437 -4.063,0.937 -6.563,3.125c-2.5,2.5 -3.437,3.125 -5.312,2.5c-1.875,-0.313 2.5,-5.313 1.875,-9.063c-0.625,-3.75 -10.313,-12.187 -3.438,-12.187c3.75,0.312 17.188,12.187 13.438,15.625Zm12.187,20.312c-0.625,-1.875 -7.5,-9.062 -10.312,-11.25l-0,-0.312c8.75,0.937 20,10.312 15.625,9.375c-4.375,-0.938 -4.688,3.75 -5.313,2.187Zm8.438,0c1.875,0 5.312,2.188 5.312,4.063c0,1.875 -3.75,3.125 -7.187,2.187c-3.75,-1.25 -2.188,-6.25 1.875,-6.25Zm88.125,-70.625c1.25,0.625 1.25,6.563 3.125,10c2.5,5.313 2.812,6.563 0.312,9.688c-2.812,3.75 -42.187,39.062 -46.875,40.312c-4.687,0.938 -48.75,0.625 -55,-1.875c-6.25,-2.5 -7.812,-1.875 -6.875,-5.312c0.938,-3.438 -1.25,-11.875 -2.812,-13.438c-1.563,-1.875 -2.813,-2.187 0.625,-1.875c3.437,0.313 6.875,0.313 22.812,2.5c16.563,3.125 38.438,0 42.188,-2.5c6.562,-4.375 25.312,-22.187 34.375,-33.75c3.437,-4.687 7.5,-4.062 8.125,-3.75Zm-18.438,-4.062c-2.187,1.875 -0.937,4.062 -1.25,5.312c-0.312,1.25 -0.937,2.5 -1.25,3.438c-0.312,2.187 -6.562,3.75 -8.437,5c-1.563,1.25 -2.188,4.375 -3.438,5c-1.25,0.625 -3.437,0.937 -3.75,0.625c-0.312,-0.313 2.5,-5.313 4.375,-6.563c1.875,-1.25 2.813,-2.5 3.75,-2.812c0.938,-0.625 5.313,-3.125 4.375,-3.438c-0.937,0 -2.5,-0.625 -2.5,-1.562c0,-0.938 5,-5.625 5,-6.563c0,-0.937 -0.937,-2.812 0,-4.062c1.563,-2.188 6.563,-2.188 6.25,-2.813c0,-0.312 -3.75,0 -4.062,-0.625c-0.313,-0.625 3.125,-6.562 2.5,-8.125c-0.625,-1.562 -0,-1.562 -0.938,-0.625c-0.937,0.938 -1.562,0.625 -2.5,0.938c-0.937,0.312 -0.625,3.125 -0.937,5c-0.313,1.875 -1.875,7.187 -2.813,7.5c-0.625,-0.313 -0.625,-4.375 -1.25,-3.75c-0.625,0.625 1.25,5 0.938,6.562c-0.313,1.25 -1.563,5 -3.125,6.563c-1.563,1.25 -2.5,3.125 -3.438,0.937c-1.25,-2.187 -0.937,-1.562 -0.937,0c-0,1.875 -0,5.625 -0.938,6.875c-1.25,1.25 -4.062,2.813 -4.687,2.188c-0.625,-0.313 1.25,-6.25 1.875,-7.188c0.312,-0.937 2.5,-2.187 2.187,-3.75c-0.312,-1.562 -0.625,-4.062 0.313,-3.125c0.937,0.625 2.5,2.5 2.5,0.625c-0,-2.187 -1.25,-6.25 -1.25,-8.125c-0,-2.187 0.937,-1.875 2.187,-2.812c1.25,-0.625 2.813,-2.188 1.875,-3.75c-0.937,-1.563 -2.812,-4.063 -1.25,-4.688c1.875,-0.625 4.063,-1.25 5.625,1.25c0.313,0.625 1.563,-0.312 2.5,-1.875c0.938,-1.562 1.875,-2.187 3.438,-2.812c1.562,-0.938 2.187,-2.188 3.437,-1.875c1.563,0.312 2.5,5.625 1.875,7.187c-0.625,1.563 1.563,2.813 1.875,4.688c0.313,3.437 -5.312,8.75 -8.125,11.25Zm9.063,-38.438c1.875,-0.312 5.312,1.25 5.625,1.875c0.625,0.625 -0.938,5.313 -1.25,6.875c-0.313,1.563 0.937,2.813 0.937,3.438c0,0.625 -2.812,4.375 -3.125,5.312c-0.312,0.938 1.25,1.875 1.563,2.5c0.312,0.625 -1.875,1.563 -3.125,1.563c-1.25,-0 -0.625,-1.563 -0.625,-1.875c-0,-0.313 -0.625,-2.5 -0.625,-3.75c-0,-1.25 2.187,-2.188 2.187,-2.813c0,-0.625 -1.875,0 -2.5,-0.312c-0.625,-0.313 -0.312,-3.75 0.625,-5.313c1.25,-1.25 2.5,-3.437 2.188,-4.062c-0.313,-0.625 -5.938,5.312 -6.563,5.312c-0.312,0 -0.625,-1.562 -0.312,-2.5c-0.313,-1.25 2.812,-5.625 5,-6.25Zm4.687,-22.187c0.938,-0 1.25,-0 -0.312,1.875c-1.563,1.875 -1.25,3.125 -3.125,5.312c-1.875,2.188 -2.188,1.875 -1.25,-1.562c0.625,-3.438 0.625,-3.125 -0.313,-5c-0.937,-1.875 0.313,-3.438 0.625,-5c0.313,-1.563 1.25,-2.813 1.25,-2.813c0,0 -1.875,0.625 -3.125,-2.5c-1.25,-2.812 1.875,-9.062 2.813,-11.25c1.25,-2.187 -0,-3.75 -0,-2.812c-0,0.937 -1.563,5.312 -3.438,3.437c-1.562,-1.875 -2.5,-9.062 -0.937,-13.125c1.562,-4.375 -0.313,-4.375 -0.313,-2.812c-0.312,1.25 -0.625,2.5 -1.562,2.5c-0.938,-0 -1.563,-4.375 -1.875,-5c-0,-0.625 1.25,-5.938 -1.25,-3.75c-2.5,2.187 -0.313,6.25 0.937,8.125c0.938,1.875 0.938,6.562 0,6.562c-0.937,0.313 -3.437,-1.875 0,2.5c1.563,1.875 2.813,6.563 2.5,8.125c-0.312,1.563 -2.187,2.5 -2.187,3.438c-0,1.25 4.687,1.875 4.062,6.562c-0.625,4.688 -1.562,1.25 -2.812,0.313c-3.75,-2.813 -3.438,-5.938 -3.125,-7.188c0.312,-0.937 -2.5,-3.125 -1.875,-5.625c0.625,-2.5 2.5,-4.687 0.937,-5.312c-1.562,-0.625 -3.125,-2.5 -3.437,-5.625c-0.313,-3.125 -5,-5.313 -0.938,-9.375c2.188,-2.188 0.938,-4.063 1.875,-5.625c1.25,-1.563 2.5,-2.188 4.688,-1.875c2.187,-0 2.5,5.625 2.812,6.25c0.625,0.625 2.5,-0.313 3.125,-0c1.563,0.937 2.5,7.5 4.688,11.562c1.875,3.75 1.25,7.188 1.25,9.375c-0,2.5 -0.938,5.313 -2.188,6.25c-1.25,0.938 -0.625,5 -0.625,4.375c0,-0.625 3.438,-3.125 5,-0.937c1.563,2.187 -2.5,6.875 -4.062,8.125c-1.875,0.937 1.25,2.5 2.187,2.5Zm-31.25,-63.125c0,-3.75 -3.437,-6.25 -4.062,-6.25c-0.938,0.312 0.625,4.687 1.25,5.625c0.937,1.25 2.812,4.375 2.812,0.625Z" style="fill:#ffffff;"/></g><g><path d="M56.509,209.698c0.625,-0 1.25,-0.313 2.188,-0.313c1.25,0 2.5,0 3.125,0.625c0.625,0.625 1.25,1.25 1.25,2.5c-0,1.25 -0.313,2.188 -0.938,2.813c-0.625,0.625 -1.875,1.25 -3.125,1.25l-1.875,-0l-0.625,-6.875Zm1.25,6.562l0.938,0c2.187,0 3.125,-1.25 3.125,-3.125c-0,-1.562 -1.25,-2.812 -3.125,-2.5c-0.625,0 -0.938,0 -1.25,0.313l0.312,5.312Z" style="fill:#ffffff;fill-rule:nonzero;"/><path d="M68.072,212.823l-2.813,0.312l0.313,2.5l3.125,-0.312l-0,0.937l-4.375,0.313l-0.625,-7.188l4.062,-0.312l0,0.625l-3.125,0.312l0,2.188l2.813,-0.313l0.625,0.938Z" style="fill:#ffffff;fill-rule:nonzero;"/><path d="M75.884,215.323c-0.312,0.312 -1.25,0.625 -2.187,0.625c-1.25,-0 -2.188,-0 -2.813,-0.625c-0.625,-0.625 -1.25,-1.563 -1.25,-2.5c0,-2.188 1.25,-3.75 3.75,-4.063c0.938,0 1.563,0 1.875,0.313l-0.312,0.625c-0.313,-0 -0.938,-0.313 -1.563,-0.313c-1.875,0 -2.812,1.25 -2.812,3.125c-0,1.875 1.25,2.813 3.125,2.813c0.625,-0 0.937,-0 1.25,-0.313l-0,-2.187l-1.563,-0l0,-0.625l2.5,-0.313l0,3.438Z" style="fill:#ffffff;fill-rule:nonzero;"/><path d="M76.822,208.448l0.937,-0l0.313,6.25l3.125,-0.313l-0,0.625l-4.063,0.313l-0.312,-6.875Z" style="fill:#ffffff;fill-rule:nonzero;"/><path d="M83.384,207.823l0.625,7.187l-0.937,0l-0.625,-7.187l0.937,-0Z" style="fill:#ffffff;fill-rule:nonzero;"/><path d="M89.322,213.135c0.625,0.313 1.562,0.625 2.5,0.625c1.562,0 2.187,-0.937 2.187,-1.875c0,-0.937 -0.625,-1.562 -2.187,-1.875c-1.875,-0.625 -2.813,-1.25 -3.125,-2.812c-0,-1.563 1.25,-2.813 3.125,-3.125c0.937,-0 1.875,-0 2.5,0.312l-0.313,0.938c-0.312,-0.313 -0.937,-0.313 -2.187,-0.313c-1.563,0 -1.875,0.938 -1.875,1.563c-0,0.937 0.625,1.25 2.187,1.875c1.875,0.625 2.813,1.25 2.813,2.812c-0,1.563 -0.938,3.125 -3.438,3.125c-0.937,0 -2.187,-0.312 -2.812,-0.625l0.625,-0.625Z" style="fill:#ffffff;fill-rule:nonzero;"/><path d="M98.072,207.51l-2.188,0l0,-0.937l5.625,-0.313l0,0.938l-2.187,-0l0.312,6.25l-0.937,-0l-0.625,-5.938Z" style="fill:#ffffff;fill-rule:nonzero;"/><path d="M103.384,206.573l0.313,4.375c-0,1.562 0.937,2.187 1.875,2.187c1.25,0 1.875,-0.937 1.562,-2.5l-0.312,-4.375l0.937,0l0.313,4.063c-0,2.187 -0.938,3.125 -2.5,3.437c-1.563,0 -2.813,-0.625 -2.813,-2.812l-0.312,-4.063l0.937,-0.312Z" style="fill:#ffffff;fill-rule:nonzero;"/><path d="M109.634,206.26c0.625,0 1.25,-0.312 2.188,-0.312c1.25,-0 2.5,-0 3.125,0.625c0.625,0.625 1.25,1.25 1.25,2.5c-0,1.25 -0.313,2.187 -0.938,2.812c-0.625,0.625 -1.875,1.25 -3.125,1.25l-1.875,0l-0.625,-6.875Zm1.563,6.25l0.937,0c2.188,0 3.125,-1.25 3.125,-3.125c0,-1.562 -1.25,-2.812 -3.125,-2.5c-0.625,0 -0.937,0 -1.25,0.313l0.313,5.312Z" style="fill:#ffffff;fill-rule:nonzero;"/><path d="M118.384,205.323l0.625,7.187l-0.937,0l-0.625,-7.187l0.937,-0Z" style="fill:#ffffff;fill-rule:nonzero;"/></g><g><path d="M157.447,215.323c-0.625,0.312 -1.875,0.625 -3.438,0.312c-1.562,0 -2.812,-0.625 -4.062,-1.562c-0.938,-0.938 -1.563,-2.188 -1.25,-3.75c-0,-3.125 2.5,-5.313 5.937,-5c1.25,-0 2.188,0.312 2.813,0.625l-0.313,0.937c-0.625,-0.312 -1.25,-0.625 -2.5,-0.625c-2.5,0 -4.375,1.563 -4.375,4.063c0,2.5 1.563,4.062 4.063,4.375c0.937,-0 1.562,-0 1.875,-0.313l-0,-3.125l-2.188,0l0,-0.937l3.438,-0l-0,5Z" style="fill:#ffffff;fill-rule:nonzero;"/><path d="M160.572,208.76l-0,4.375c-0,1.563 0.625,2.188 1.562,2.188c1.25,-0 1.875,-0.625 1.875,-2.188l0,-4.375l0.938,0l-0,4.063c-0,2.187 -1.25,3.125 -2.813,3.125c-1.562,-0 -2.812,-0.938 -2.5,-3.125l0,-4.375l0.938,0.312Z" style="fill:#ffffff;fill-rule:nonzero;"/><path d="M172.447,215.948c-0.313,-0 -1.25,0.312 -2.188,0.312c-1.25,0 -2.187,-0.312 -2.812,-0.937c-0.625,-0.625 -0.938,-1.563 -0.938,-2.813c0,-2.187 1.563,-3.75 4.063,-3.437c0.937,-0 1.562,0.312 1.875,0.312l-0.313,0.625c-0.312,-0.312 -0.937,-0.312 -1.562,-0.312c-1.875,-0 -3.125,0.937 -3.125,2.812c-0,1.875 0.937,2.813 2.812,3.125l1.25,0l0,-2.187l-1.562,-0l-0,-0.625l2.5,-0l-0,3.125Z" style="fill:#ffffff;fill-rule:nonzero;"/><path d="M174.322,209.073l0.937,-0l0,6.562l3.125,0l0,0.938l-4.062,-0l-0,-7.5Z" style="fill:#ffffff;fill-rule:nonzero;"/><path d="M180.884,209.385l-0.312,7.188l-0.938,-0l0.313,-7.188l0.937,0Z" style="fill:#ffffff;fill-rule:nonzero;"/><path d="M186.509,213.135l-2.812,0l-0,2.5l3.125,0l-0,0.625l-4.375,0l0.312,-7.187l4.063,-0l-0,0.625l-3.125,-0l-0,2.187l2.812,0l0,1.25Z" style="fill:#ffffff;fill-rule:nonzero;"/><path d="M188.384,209.385l0.938,0l-0.313,6.563l3.125,-0l0,0.937l-4.062,0l0.312,-7.5Z" style="fill:#ffffff;fill-rule:nonzero;"/><path d="M199.947,213.76l-0,-3.125c-0.313,0.938 -0.625,1.563 -0.938,2.813l-1.562,3.437l-0.625,0l-1.25,-3.437c-0.313,-0.938 -0.625,-1.875 -0.625,-2.813c-0,0.938 -0,2.188 -0.313,3.125l-0.312,3.125l-0.938,0l0.625,-7.187l1.25,-0l1.25,3.437c0.313,0.938 0.625,1.563 0.625,2.5c0.313,-0.625 0.625,-1.562 0.938,-2.5l1.562,-3.437l1.25,-0l0.313,7.187l-0.938,0l-0.312,-3.125Z" style="fill:#ffffff;fill-rule:nonzero;"/><path d="M209.009,213.76c0,2.5 -1.562,3.75 -3.75,3.75c-1.875,0 -3.437,-1.562 -3.125,-3.75c0,-2.187 1.563,-3.75 3.75,-3.75c1.875,0 3.125,1.563 3.125,3.75Zm-5.937,0c-0,1.563 0.625,2.813 2.187,3.125c1.563,0 2.5,-1.25 2.5,-2.812c0,-1.563 -0.625,-2.813 -2.187,-3.125c-1.563,-0.313 -2.188,0.937 -2.5,2.812Z" style="fill:#ffffff;fill-rule:nonzero;"/></g><g><path d="M14.947,170.323l-4.063,4.687c-1.562,1.875 -1.25,3.125 -0.312,4.063c1.25,0.937 2.5,0.937 4.062,-0.625l4.063,-4.688l0.937,0.938l-3.75,4.687c-2.187,2.5 -4.062,2.188 -5.937,0.625c-1.563,-1.562 -2.188,-3.437 -0,-5.937l4.062,-4.688l0.938,0.938Z" style="fill:#ffffff;fill-rule:nonzero;"/><path d="M14.947,183.76l4.687,-5.312l0.938,0.625l-0.625,4.375c-0,0.937 -0.313,1.875 -0.625,2.5c0.625,-0.938 1.25,-1.563 1.875,-2.188l1.875,-2.187l0.625,0.625l-4.688,5.312l-0.625,-0.625l0.625,-4.375c0,-0.937 0.313,-1.875 0.625,-2.812c-0.625,0.625 -1.25,1.25 -1.875,2.187l-1.875,2.188l-0.937,-0.313Z" style="fill:#ffffff;fill-rule:nonzero;"/><path d="M25.884,184.073l-4.687,5.312l-0.625,-0.625l4.687,-5.312l0.625,0.625Z" style="fill:#ffffff;fill-rule:nonzero;"/><path d="M24.009,191.573l2.813,-7.188l0.937,0.625l-1.562,3.438c-0.625,1.25 -0.938,2.187 -1.25,2.812c0.625,-0.625 1.562,-0.937 2.5,-1.562l3.437,-1.875l0.938,0.625l-6.875,3.75l-0.938,-0.625Z" style="fill:#ffffff;fill-rule:nonzero;"/><path d="M32.447,194.698l-2.188,-1.875l-1.562,1.875l2.5,2.187l-0.625,0.625l-3.125,-2.812l4.687,-5.313l3.125,2.813l-0.625,0.312l-2.187,-1.875l-1.563,1.875l2.188,1.875l-0.625,0.313Z" style="fill:#ffffff;fill-rule:nonzero;"/><path d="M36.197,193.135c0.312,0.313 0.937,0.625 1.562,1.25c0.938,0.625 1.25,1.25 1.25,1.875c0,0.625 0,0.938 -0.312,1.563c-0.625,0.625 -1.563,0.625 -2.188,0.312c0.313,0.625 0.313,1.25 0,1.875c-0.312,0.938 -0.937,1.563 -0.937,1.875l-0.938,-0.937c0,-0.313 0.313,-0.938 0.625,-1.563c0.625,-0.937 0.313,-1.562 -0.312,-2.187l-0.625,-0.625l-1.875,2.5l-0.938,-0.625l4.688,-5.313Zm-1.25,3.125l0.625,0.625c0.937,0.625 1.562,0.625 2.187,0c0.625,-0.625 0.313,-1.562 -0.312,-2.187c-0.313,-0.313 -0.625,-0.625 -0.625,-0.625l-1.875,2.187Z" style="fill:#ffffff;fill-rule:nonzero;"/><path d="M36.822,201.573c-0,0.625 0.625,0.937 0.937,1.562c0.625,0.625 1.563,0.625 1.875,0c0.313,-0.625 0.313,-0.937 0,-1.875c-0.625,-1.25 -0.937,-2.187 -0.312,-2.812c0.625,-0.938 1.875,-0.938 3.125,-0c0.625,0.625 0.937,0.937 0.937,1.25l-0.625,0.312c0,-0.312 -0.312,-0.625 -0.937,-1.25c-0.938,-0.625 -1.563,-0.625 -1.875,0c-0.313,0.625 -0.313,0.938 0.312,2.188c0.625,1.25 0.625,2.187 0,2.812c-0.625,0.938 -1.875,0.938 -3.437,0c-0.625,-0.625 -0.938,-1.25 -1.25,-1.562l1.25,-0.625Z" style="fill:#ffffff;fill-rule:nonzero;"/><path d="M45.884,201.26l-4.687,5.313l-0.625,-0.625l4.687,-5.313l0.625,0.625Z" style="fill:#ffffff;fill-rule:nonzero;"/><path d="M47.759,204.073l-1.875,-1.563l0.625,-0.625l4.063,3.75l-0.313,0.625l-1.875,-1.562l-4.062,5l-0.625,-0.625l4.062,-5Z" style="fill:#ffffff;fill-rule:nonzero;"/><path d="M48.697,210.01l-2.188,1.25l-0.625,-0.625l6.563,-3.75l0.937,0.625l-2.812,7.188l-0.938,-0.625l0.938,-2.188l-1.875,-1.875Zm2.187,1.25l0.938,-2.187c0.312,-0.313 0.312,-0.938 0.625,-1.25c-0.313,0.312 -0.625,0.625 -1.25,0.625l-1.875,0.937l1.562,1.875Zm2.813,-5.625l-0,1.563l-0.625,-0.625l-0.313,-1.875l0.938,0.937Z" style="fill:#ffffff;fill-rule:nonzero;"/></g><g><path d="M219.947,201.573c-0.938,-0.938 -2.188,-2.188 -3.125,-3.125c0.625,1.25 1.25,2.5 1.562,3.75l1.875,5l-0.625,0.625l-4.687,-2.5c-1.25,-0.625 -2.5,-1.25 -3.75,-2.188c0.937,0.938 1.875,2.188 2.812,3.438l2.813,3.437l-0.938,0.938l-6.25,-7.813l1.25,-1.25l4.688,2.5c1.25,0.625 2.187,1.25 3.125,1.875c-0.625,-0.937 -0.938,-2.187 -1.563,-3.437l-1.875,-5l1.25,-1.25l7.5,6.875l-0.937,0.937l-3.125,-2.812Z" style="fill:#ffffff;fill-rule:nonzero;"/><path d="M224.947,199.698l0.937,2.187l-0.625,0.938l-3.125,-6.875l0.938,-0.938l6.875,3.438l-0.938,0.625l-2.187,-0.938l-1.875,1.563Zm1.25,-2.188l-1.875,-0.937c-0.313,-0.313 -0.938,-0.313 -1.25,-0.625c0.312,0.312 0.312,0.937 0.625,1.25l0.937,1.875l1.563,-1.563Z" style="fill:#ffffff;fill-rule:nonzero;"/><path d="M225.884,192.198c0.313,-0.313 0.625,-0.938 1.25,-1.25c0.625,-0.625 1.25,-0.938 1.875,-0.938c0.625,0 0.938,0.313 1.25,0.625c0.625,0.625 0.625,1.563 0.313,2.188c0.625,-0.313 1.25,-0 1.875,0.312c0.937,0.625 1.562,0.938 1.875,0.938l-0.625,0.625c-0.313,-0 -0.625,-0.313 -1.563,-0.938c-0.937,-0.625 -1.25,-0.625 -2.187,0l-0.625,0.625l2.187,2.188l-0.625,0.625l-5,-5Zm3.125,1.875l0.625,-0.625c0.625,-0.625 0.938,-1.563 0.313,-2.188c-0.625,-0.625 -1.563,-0.625 -2.188,0.313c-0.312,0.312 -0.625,0.625 -0.625,0.625l1.875,1.875Z" style="fill:#ffffff;fill-rule:nonzero;"/><path d="M239.009,189.385c0,0.313 -0.625,0.938 -1.25,1.563c-1.562,1.562 -3.437,1.562 -5.312,-0c-1.563,-1.563 -1.563,-3.75 0.312,-5.313c0.625,-0.625 1.25,-0.937 1.563,-0.937l0.312,0.625c-0.312,-0 -0.937,0.312 -1.25,0.937c-1.25,1.25 -1.25,2.813 0,4.063c1.25,1.25 2.813,1.25 4.063,-0c0.312,-0.313 0.937,-0.938 0.937,-1.25l0.625,0.312Z" style="fill:#ffffff;fill-rule:nonzero;"/><path d="M242.134,181.885c1.563,1.875 1.563,3.75 0,5c-1.562,1.25 -3.437,1.25 -5,-0.312c-1.562,-1.563 -1.562,-3.75 0,-5c1.563,-1.563 3.438,-1.25 5,0.312Zm-4.062,4.063c0.937,1.25 2.5,1.562 3.75,0.625c1.25,-0.938 0.937,-2.5 -0.313,-3.75c-0.937,-0.938 -2.5,-1.563 -3.75,-0.625c-1.25,0.937 -0.937,2.5 0.313,3.75Z" style="fill:#ffffff;fill-rule:nonzero;"/><path d="M245.572,183.448l-4.688,-5.313l0.938,-0.625l4.375,0.938c0.937,0.312 1.875,0.625 2.5,0.937c-0.625,-0.625 -4.375,-4.375 -4.375,-4.375l0.625,-0.625l5,5.313l-0.938,0.625l-4.375,-0.938c-0.937,-0.312 -1.875,-0.625 -2.812,-0.937c0.625,0.625 4.375,4.375 4.375,4.375l-0.625,0.625Z" style="fill:#ffffff;fill-rule:nonzero;"/><path d="M247.134,172.51l5,5.313l-0.625,0.625l-5,-5.313l0.625,-0.625Z" style="fill:#ffffff;fill-rule:nonzero;"/></g></g></svg>